<?xml version="1.0"?>
<svg xmlns="http://www.w3.org/2000/svg" id="Capa_1" enable-background="new 0 0 512 512" height="512px" viewBox="0 0 512 512" width="512px"><g><path d="m379.302 227.539c-25.533-2.195-46.541-20.469-52.798-44.632h-55.504v146.187h102.786c5.935-32.809 7.85-67.278 5.516-101.555z" fill="#FFFFFF"/><path d="m384.47 138.037c-16.47 0-29.87 13.399-29.87 29.87 0 16.47 13.399 29.869 29.87 29.869s29.87-13.399 29.87-29.869c0-16.471-13.4-29.87-29.87-29.87z" fill="#FFFFFF"/><circle cx="126.092" cy="345.078" r="45.111" fill="#FFFFFF"/><path d="m241 0c-34.239 23.528-62.077 63.198-81.296 109.132-5.813 13.895-10.748 28.565-14.788 43.775h96.084z" fill="#FFFFFF"/><path d="m131.978 270.219c33.293 2.596 60.554 26.976 67.497 58.875h41.525v-146.187h-102.757c-5.107 28.244-7.257 57.77-6.265 87.312z" fill="#FFFFFF"/><path d="m241 512v-152.907h-41.128c-4.183 22.065-18.04 40.735-36.986 51.429 18.729 42.731 44.909 79.083 78.114 101.478z" fill="#FFFFFF"/><path d="m271 512c35.894-24.635 64.646-66.524 83.929-115.615 4.705-11.977 8.772-24.449 12.189-37.292h-96.118z" fill="#FFFFFF"/><path d="m382.852 407.354c-14.897 37.924-35.065 70.154-59.619 95.706 74.989-20.36 136.293-73.937 167.141-143.966h-92.317c-4.078 16.678-9.15 32.844-15.205 48.26z" fill="#FFFFFF"/><path d="m126.092 420.189c-36.626 0-67.194-26.357-73.78-61.096h-30.686c30.729 69.758 91.677 123.194 166.271 143.731-21.771-22.582-39.734-50.327-53.719-83.077-2.658.286-5.354.442-8.086.442z" fill="#FFFFFF"/><path d="m409.026 222.487c2.681 35.85.997 72.001-4.804 106.607h97.171c6.889-23.164 10.607-47.693 10.607-73.094s-3.718-49.93-10.607-73.093h-58.957c-4.577 17.674-17.051 32.191-33.41 39.58z" fill="#FFFFFF"/><path d="m102.087 273.923c-1.212-30.683.76-61.433 5.721-91.016h-97.201c-6.889 23.163-10.607 47.692-10.607 73.093s3.718 49.93 10.607 73.094h42.103c5.631-25.874 24.631-46.799 49.377-55.171z" fill="#FFFFFF"/><path d="m384.156 108.045c.105-.001.209-.008.314-.008 27.834 0 51.291 19.093 57.966 44.87h47.939c-30.852-70.036-92.164-123.618-167.164-143.972 5.765 6.004 11.303 12.38 16.593 19.135 17.992 22.972 32.877 49.837 44.352 79.975z" fill="#FFFFFF"/><path d="m271 0v152.907h55.504c4.107-15.862 14.578-29.18 28.505-37.089-14.806-37.797-40.441-86.045-84.009-115.818z" fill="#FFFFFF"/><path d="m132.029 97.552c14.574-34.834 33.757-64.668 56.768-88.62-75.003 20.354-136.319 73.936-167.172 143.975h92.338c4.713-19.3 10.754-37.878 18.066-55.355z" fill="#FFFFFF"/></g></svg>
