<svg width="135" height="135" viewBox="0 0 135 135" fill="none" xmlns="http://www.w3.org/2000/svg">
<g clip-path="url(#clip0)">
<path d="M15.0417 42.7125L15.8368 40.7775C13.6007 40.1386 11.3754 41.0981 10.3681 43.5491C9.21702 46.3503 10.4944 49.0078 13.443 50.2195C16.3916 51.4312 19.1685 50.4398 20.3272 47.6202C21.3344 45.1692 20.4203 42.8333 18.3063 41.7923L17.5111 43.7273C18.5312 44.2327 19.4239 45.3103 18.7423 46.9689C17.9547 48.8855 16.0073 49.0115 14.2382 48.2845C12.469 47.5574 11.1805 46.0801 11.9606 44.182C12.6422 42.5234 14.0531 42.3924 15.0417 42.7125Z" fill="white"/>
<path d="M25.4202 38.3809C23.6031 40.9949 20.688 41.3191 18.0903 39.5134C15.4926 37.7076 14.7808 34.8623 16.5978 32.2483C18.4149 29.6342 21.33 29.3101 23.9277 31.1158C26.5254 32.9215 27.2372 35.7669 25.4202 38.3809ZM24.0151 37.4042C25.1508 35.7704 24.4507 34.0237 22.7352 32.8313C21.0034 31.6274 19.1385 31.5912 18.0029 33.2249C16.8672 34.8587 17.551 36.5941 19.2828 37.7979C20.9982 38.9904 22.8795 39.038 24.0151 37.4042Z" fill="white"/>
<path d="M25.9897 21.4598C24.7081 22.6562 24.48 23.9593 24.6306 24.909L24.6014 24.9362L23.7041 23.9749L22.1749 25.4025L29.1223 32.8449L30.6516 31.4173L26.4233 26.8878C25.39 25.7809 25.4811 24.3603 26.6609 23.259C27.7095 22.2801 28.7301 22.5267 29.6682 23.5316L34.0596 28.2359L35.6034 26.7948L30.8041 21.6536C29.2134 19.9495 27.3733 20.1682 25.9897 21.4598Z" fill="white"/>
<path d="M36.6389 16.1342L35.6965 14.7121L34.109 15.7641L32.3447 13.1016L30.5918 14.2632L32.3561 16.9256L31.1323 17.7365L32.0747 19.1587L33.2985 18.3478L36.4325 23.0774C37.616 24.8634 38.7931 24.9877 40.1822 24.0672C40.6453 23.7604 40.9927 23.4587 41.2852 23.1459L40.3428 21.7237C39.2621 22.535 38.7224 22.7261 38.0868 21.767L35.0514 17.1862L36.6389 16.1342Z" fill="white"/>
<path d="M45.3795 12.7726C45.7717 13.6666 44.976 14.2333 43.6547 15.1394C41.5195 16.6202 40.2853 17.9232 41.1819 19.9667C41.8704 21.5358 43.5184 22.1181 45.4159 21.2856C46.8572 20.6532 47.6673 19.6233 47.8909 18.5461L47.9274 18.5301C48.5101 19.3623 49.1446 19.519 50.1663 19.0707C50.5312 18.9106 50.8253 18.7381 51.1912 18.3817L50.7909 17.4695C50.0749 17.8707 49.7768 17.5881 49.4886 16.9312L47.5434 12.4977C46.4547 10.0164 44.5779 9.90426 42.5162 10.8088C39.7064 12.0417 39.1734 13.9509 39.8667 15.7789L41.7277 14.9624C41.2905 13.7182 41.648 12.9956 43.1806 12.3232C44.4577 11.7628 45.0833 12.0976 45.3795 12.7726ZM45.1711 19.5871C44.1311 20.0434 43.4121 19.7932 43.0359 18.9357C42.6196 17.9869 43.1128 17.2266 44.548 16.1835C45.3619 15.6088 46.0139 15.0616 46.228 14.7066L46.8444 16.1115C47.5089 17.6258 46.7584 18.8907 45.1711 19.5871Z" fill="white"/>
<path d="M58.0436 10.3411L60.0917 9.91511C59.3675 7.7051 57.3256 6.40004 54.7312 6.93967C51.7662 7.55638 50.2814 10.1038 50.9306 13.2248C51.5797 16.3459 53.9572 18.0899 56.9417 17.4691C59.536 16.9295 60.9581 14.8632 60.6354 12.529L58.5872 12.955C58.7405 14.0831 58.3483 15.4264 56.5927 15.7916C54.5641 16.2135 53.3682 14.6714 52.9787 12.7988C52.5892 10.9262 53.0905 9.03108 55.0996 8.61317C56.8552 8.24801 57.7546 9.34302 58.0436 10.3411Z" fill="white"/>
<path d="M67.5431 7.63405L67.4809 5.92171L65.5694 5.99113L65.453 2.78548L63.3425 2.86214L63.4589 6.06779L61.9855 6.1213L62.0477 7.83363L63.5211 7.78012L63.7279 13.4746C63.806 15.625 64.7494 16.3484 66.4219 16.2876C66.9794 16.2674 67.4352 16.191 67.8497 16.0763L67.7875 14.3639C66.4364 14.4927 65.8739 14.3736 65.8319 13.2188L65.6316 7.70347L67.5431 7.63405Z" fill="white"/>
<path d="M82.4419 7.77825L81.1407 13.8507C80.8227 15.3346 79.6023 16.0738 78.0208 15.7349C76.6149 15.4336 76.2328 14.4532 76.5215 13.1059L77.8729 6.79918L75.8032 6.35567L74.3262 13.2482C73.8367 15.5327 75.071 16.9204 76.9259 17.3179C78.6442 17.6861 79.8464 17.1268 80.5409 16.4587L80.58 16.4671L80.3038 17.7558L82.354 18.1951L84.4921 8.21757L82.4419 7.77825Z" fill="white"/>
<path d="M90.8147 15.2341C89.6119 14.3214 88.6111 13.7832 89.0359 12.8404C89.3299 12.1877 90.1424 12.0303 91.2847 12.5449C92.7714 13.2148 92.7991 14.1215 92.5993 14.9039L94.4486 15.7372C95.0487 14.0663 94.4647 12.1674 91.9446 11.0319C89.6238 9.9863 87.7348 10.5966 87.0486 12.1196C86.1011 14.2227 87.9647 15.4114 89.2781 16.4176C90.4909 17.3566 91.556 17.9455 91.0332 19.1059C90.7718 19.6861 89.9157 20.0856 88.5921 19.4892C86.634 18.607 86.5828 17.5588 86.9414 16.5208L85.0921 15.6875C84.3005 17.6865 84.9588 19.6626 87.9504 21.0104C90.1986 22.0234 92.2199 21.6036 93.0205 19.8268C94.0171 17.6148 92.3393 16.4008 90.8147 15.2341Z" fill="white"/>
<path d="M100.91 23.9689C102.153 24.9447 103.669 24.6337 104.546 23.5162C105.423 22.3986 105.365 20.8523 104.121 19.8765C102.862 18.8882 101.346 19.1992 100.469 20.3168C99.5923 21.4343 99.6505 22.9806 100.91 23.9689Z" fill="white"/>
<path d="M114.28 34.3973L115.556 36.05C117.224 34.4355 117.504 32.0331 115.888 29.9397C114.041 27.5472 111.106 27.3259 108.588 29.2704C106.069 31.215 105.541 34.1102 107.4 36.5184C109.017 38.6118 111.492 38.9868 113.447 37.6786L112.171 36.0259C111.225 36.6557 109.848 36.8898 108.754 35.4732C107.49 33.8362 108.353 32.0899 109.864 30.9231C111.375 29.7564 113.295 29.3794 114.546 31.0006C115.64 32.4172 115.05 33.7023 114.28 34.3973Z" fill="white"/>
<path d="M112.888 45.5584C111.532 42.6735 112.711 39.9836 115.578 38.6357C118.445 37.2879 121.269 38.0959 122.625 40.9808C123.981 43.8658 122.802 46.5557 119.935 47.9035C117.068 49.2513 114.245 48.4433 112.888 45.5584ZM114.439 44.8294C115.287 46.6324 117.152 46.9004 119.045 46.0103C120.956 45.1117 121.922 43.5129 121.074 41.7099C120.227 39.9068 118.379 39.6304 116.468 40.5289C114.575 41.419 113.591 43.0263 114.439 44.8294Z" fill="white"/>
<path d="M127.172 54.5955C126.787 52.885 125.777 52.0299 124.882 51.6802L124.873 51.6413L126.156 51.3524L125.696 49.3115L115.764 51.5481L116.223 53.589L122.268 52.2278C123.745 51.8951 124.925 52.6914 125.28 54.2658C125.595 55.6653 124.867 56.4216 123.526 56.7236L117.247 58.1373L117.711 60.1977L124.573 58.6526C126.847 58.1405 127.588 56.442 127.172 54.5955Z" fill="white"/>
<path d="M126.495 66.5151L128.207 66.4236L128.104 64.5136L131.308 64.3424L131.195 62.2334L127.992 62.4047L127.913 60.9324L126.202 61.0239L126.281 62.4961L120.59 62.8003C118.442 62.9152 117.735 63.8708 117.824 65.542C117.854 66.0991 117.938 66.5535 118.06 66.966L119.771 66.8745C119.619 65.5259 119.728 64.9614 120.882 64.8997L126.393 64.6051L126.495 66.5151Z" fill="white"/>
<path d="M124.879 75.7115C123.909 75.6002 123.82 74.6273 123.703 73.0295C123.499 70.4391 122.995 68.7166 120.778 68.4621C119.076 68.2666 117.742 69.3971 117.506 71.4556C117.327 73.0194 117.808 74.2379 118.626 74.9736L118.622 75.0131C117.609 75.0974 117.154 75.5666 117.027 76.6751C116.982 77.071 116.983 77.412 117.106 77.9075L118.096 78.0212C118.11 77.2005 118.504 77.0853 119.217 77.1672L124.027 77.7194C126.719 78.0285 127.761 76.4636 128.018 74.2269C128.368 71.1786 126.987 69.7566 125.058 69.4349L124.826 71.4538C126.121 71.7028 126.566 72.3755 126.375 74.0382C126.216 75.4238 125.611 75.7956 124.879 75.7115ZM119.097 72.0995C119.226 70.9713 119.805 70.4761 120.735 70.583C121.764 70.7012 122.173 71.5101 122.351 73.2754C122.438 74.268 122.582 75.1068 122.781 75.4706L121.257 75.2956C119.614 75.107 118.899 73.8216 119.097 72.0995Z" fill="white"/>
<path d="M120.635 87.9298L119.965 89.9173C122.244 90.4108 124.407 89.306 125.255 86.7886C126.224 83.9116 124.773 81.3364 121.745 80.3163C118.716 79.2962 116.003 80.4687 115.028 83.3647C114.18 85.8821 115.246 88.1592 117.429 89.0629L118.098 87.0755C117.045 86.6364 116.082 85.6165 116.656 83.913C117.319 81.9445 119.258 81.6916 121.075 82.3037C122.893 82.9158 124.278 84.3097 123.621 86.2592C123.047 87.9627 121.644 88.1857 120.635 87.9298Z" fill="white"/>
<path d="M118.154 97.4488L119.664 98.2588L120.569 96.5733L123.395 98.0896L124.394 96.2285L121.567 94.7122L122.264 93.413L120.754 92.603L120.057 93.9022L115.036 91.2086C113.139 90.1915 112.039 90.6412 111.248 92.1161C110.984 92.6077 110.82 93.0397 110.71 93.4555L112.22 94.2655C112.79 93.0339 113.177 92.6082 114.195 93.1545L119.059 95.7633L118.154 97.4488Z" fill="white"/>
<path d="M110.293 110.143L105.77 105.929C104.664 104.899 104.656 103.479 105.753 102.301C106.729 101.254 107.762 101.428 108.765 102.363L113.463 106.739L114.899 105.197L109.765 100.415C108.063 98.8297 106.247 99.1754 104.96 100.557C103.768 101.837 103.632 103.15 103.848 104.084L103.821 104.114L102.861 103.219L101.438 104.747L108.87 111.67L110.293 110.143Z" fill="white"/>
<path d="M99.8917 113.749C101.287 113.164 102.255 112.566 102.86 113.407C103.279 113.989 103.008 114.773 101.988 115.505C100.662 116.459 99.8615 116.028 99.2831 115.463L97.633 116.649C98.7812 118.007 100.721 118.453 102.97 116.837C105.041 115.348 105.459 113.404 104.482 112.045C103.133 110.168 101.167 111.188 99.6358 111.823C98.2131 112.404 97.1681 113.032 96.4238 111.997C96.0517 111.479 96.1346 110.536 97.3156 109.688C99.0628 108.432 99.9976 108.913 100.718 109.744L102.368 108.558C101.031 106.869 98.9873 106.449 96.318 108.368C94.3119 109.81 93.6623 111.774 94.802 113.359C96.2208 115.333 98.1152 114.486 99.8917 113.749Z" fill="white"/>
<path d="M87.204 117.957C85.7402 118.539 85.2487 120.001 85.7721 121.317C86.2955 122.632 87.6569 123.357 89.1207 122.774C90.6031 122.185 91.0946 120.723 90.5712 119.407C90.0478 118.092 88.6864 117.367 87.204 117.957Z" fill="white"/>
<path d="M71.4168 124.331L69.3406 124.588C69.8813 126.85 71.8095 128.318 74.4393 127.993C77.4449 127.621 79.1335 125.204 78.7422 122.04C78.3509 118.876 76.1244 116.943 73.0991 117.317C70.4692 117.643 68.8826 119.585 69.013 121.938L71.0892 121.681C71.0289 120.545 71.5298 119.238 73.3094 119.018C75.3658 118.764 76.4312 120.398 76.666 122.297C76.9008 124.195 76.2459 126.043 74.2093 126.294C72.4297 126.515 71.6231 125.35 71.4168 124.331Z" fill="white"/>
<path d="M62.501 117.542C65.6889 117.829 67.4225 120.215 67.1373 123.382C66.8522 126.55 64.7206 128.588 61.5327 128.301C58.3449 128.014 56.6113 125.629 56.8964 122.461C57.1815 119.293 59.3132 117.255 62.501 117.542ZM62.3468 119.256C60.3544 119.076 59.1767 120.557 58.9884 122.649C58.7984 124.761 59.6945 126.408 61.6869 126.588C63.6793 126.767 64.8552 125.306 65.0453 123.194C65.2336 121.102 64.3392 119.435 62.3468 119.256Z" fill="white"/>
<path d="M47.5287 125.263C49.2005 125.791 50.4475 125.349 51.2005 124.751L51.2385 124.763L50.8425 126.017L52.8373 126.647L55.9039 116.939L53.9091 116.309L52.0427 122.217C51.5866 123.661 50.3046 124.28 48.7657 123.794C47.3978 123.362 47.1109 122.352 47.525 121.041L49.4634 114.904L47.4495 114.268L45.3311 120.975C44.6289 123.198 45.7238 124.693 47.5287 125.263Z" fill="white"/>
<path d="M37.5666 118.673L36.7829 120.196L38.4837 121.071L37.0165 123.924L38.8945 124.89L40.3618 122.037L41.6729 122.712L42.4567 121.188L41.1456 120.513L43.752 115.446C44.7362 113.533 44.2675 112.44 42.7793 111.675C42.2832 111.42 41.8483 111.263 41.4307 111.16L40.6469 112.684C41.8882 113.233 42.3205 113.612 41.7919 114.64L39.2675 119.547L37.5666 118.673Z" fill="white"/>
<path d="M30.4408 112.619C31.0275 111.839 31.9116 112.255 33.3493 112.962C35.687 114.096 37.4278 114.533 38.7689 112.749C39.7986 111.38 39.4979 109.658 37.8418 108.413C36.5837 107.467 35.2889 107.266 34.2405 107.599L34.2086 107.575C34.6481 106.659 34.4735 106.03 33.5817 105.359C33.2633 105.12 32.9686 104.948 32.4786 104.804L31.8799 105.6C32.5807 106.027 32.4806 106.426 32.0496 106.999L29.1399 110.869C27.5115 113.034 28.3343 114.725 30.1337 116.078C32.5861 117.922 34.5114 117.45 35.7644 115.949L34.1401 114.728C33.2702 115.719 32.4652 115.762 31.1276 114.756C30.0128 113.918 29.9978 113.209 30.4408 112.619ZM36.4817 109.459C37.3894 110.141 37.5239 110.891 36.9611 111.639C36.3385 112.467 35.434 112.41 33.8211 111.671C32.921 111.244 32.1244 110.944 31.71 110.931L32.632 109.705C33.6259 108.384 35.0962 108.417 36.4817 109.459Z" fill="white"/>
<path d="M22.1255 102.802L20.7448 101.233C19.1824 102.953 19.0562 105.371 20.8052 107.358C22.8039 109.629 25.7495 109.662 28.1404 107.558C30.5313 105.454 30.8732 102.528 28.8612 100.242C27.1123 98.2547 24.6156 98.0389 22.7472 99.471L24.1279 101.04C25.0322 100.35 26.3927 100.028 27.5761 101.373C28.9437 102.927 28.1942 104.727 26.7597 105.989C25.3251 107.252 23.4316 107.751 22.0771 106.212C20.8936 104.867 21.4011 103.546 22.1255 102.802Z" fill="white"/>
<path d="M15.1635 95.8048L13.707 96.6958L14.7016 98.3216L11.975 99.9897L13.0732 101.785L15.7998 100.117L16.5665 101.37L18.0229 100.479L17.2563 99.2258L22.0998 96.2627C23.9288 95.1438 24.0958 93.971 23.2255 92.5485C22.9354 92.0743 22.6463 91.7158 22.3441 91.412L20.8876 92.303C21.6599 93.4132 21.8314 93.9599 20.8492 94.5608L16.1581 97.4306L15.1635 95.8048Z" fill="white"/>
<path d="M7.96306 82.7331L13.889 80.9225C15.3371 80.4801 16.5735 81.1856 17.0451 82.729C17.4643 84.1009 16.7947 84.9097 15.48 85.3114L9.32539 87.1919L9.94251 89.2116L16.6687 87.1565C18.8981 86.4753 19.5094 84.7261 18.9564 82.9159C18.444 81.2391 17.3733 80.4621 16.4539 80.1805L16.4423 80.1424L17.6999 79.7581L17.0886 77.7574L7.35177 80.7324L7.96306 82.7331Z" fill="white"/>
<path d="M10.1061 71.8295C9.90011 73.3344 9.92263 74.4772 8.88658 74.5704C8.16931 74.635 7.63017 74.0006 7.5172 72.7454C7.37016 71.1116 8.15118 70.6396 8.93559 70.4284L8.75269 68.3962C6.99201 68.6953 5.61605 70.1447 5.8653 72.9142C6.09483 75.4644 7.56243 76.8187 9.23605 76.668C11.5472 76.46 11.6688 74.2397 11.9021 72.5918C12.1262 71.0652 12.1165 69.8409 13.3916 69.7261C14.0292 69.6687 14.802 70.2218 14.9329 71.6763C15.1266 73.8281 14.2332 74.3905 13.1463 74.5888L13.3292 76.621C15.4721 76.3277 16.8789 74.7751 16.583 71.4876C16.3607 69.017 14.9947 67.4528 13.0421 67.6285C10.6114 67.8473 10.3759 69.9172 10.1061 71.8295Z" fill="white"/>
<path d="M12.965 58.7866C13.2011 57.2283 12.1867 56.0658 10.7863 55.8536C9.38582 55.6414 8.07263 56.4513 7.83653 58.0095C7.59745 59.5875 8.61178 60.7501 10.0122 60.9623C11.4127 61.1745 12.7259 60.3646 12.965 58.7866Z" fill="white"/>
</g>
<defs>
<clipPath id="clip0">
<rect width="134.13" height="134.13" fill="white"/>
</clipPath>
</defs>
</svg>
